<svg width="570" height="570" xmlns="http://www.w3.org/2000/svg" xmlns:xlink="http://www.w3.org/1999/xlink" overflow="hidden"><g transform="translate(-304 -117)"><path d="M475.421 452.264 502.748 483.589 506.72 486.545 503.097 487.067C498.897 486.565 494.837 483.874 491.912 479.113ZM549.516 442.463 525.958 480.815C521.572 487.956 514.63 490.44 508.493 487.865L506.72 486.545 509.378 486.163C511.424 485.305 513.38 483.884 515.122 481.887ZM571.291 407.012 571.425 408.744C571.057 414.482 569.088 420.029 565.603 424.023L549.516 442.463ZM446.812 405.69 475.421 452.264 452.268 425.725C448.783 421.731 446.813 416.184 446.446 410.446ZM620.276 122.772 615.479 127.19C612.497 131.262 610.653 136.889 610.653 143.104L610.653 342.93 571.291 407.012 570.764 400.164C570.135 397.37 569.095 394.697 567.633 392.317L509.458 297.607 612.876 129.242C614.338 126.861 616.084 124.998 617.99 123.668ZM622.718 121.814 620.276 122.772 620.715 122.367ZM624.06 121.288 624.432 121.342 622.718 121.814ZM322.975 120.598 387.384 120.598 381.785 124.766 331.305 182.629C324.335 190.619 323.425 204.814 329.274 214.336L405.347 338.183 405.347 663.995C405.347 676.424 397.971 686.5 388.872 686.5L322.975 686.5C313.876 686.5 306.5 676.424 306.5 663.995L306.5 143.104C306.5 130.674 313.876 120.598 322.975 120.598ZM627.128 120.598 693.025 120.598C702.124 120.598 709.5 130.674 709.5 143.104L709.5 663.995C709.5 676.424 702.124 686.5 693.025 686.5L627.128 686.5C618.029 686.5 610.653 676.424 610.653 663.995L610.653 342.93 688.597 216.038C694.445 206.516 693.536 192.321 686.566 184.331L636.086 126.468C634.343 124.47 632.387 123.05 630.341 122.192L624.432 121.342ZM393.81 119.586C398.011 120.088 402.071 122.779 404.995 127.54L509.458 297.607 450.237 394.019C448.775 396.399 447.735 399.072 447.107 401.866L446.812 405.69 405.347 338.183 405.347 143.104C405.347 130.674 397.971 120.598 388.872 120.598L387.384 120.598 387.529 120.49C389.575 119.631 391.71 119.335 393.81 119.586Z" stroke="#2B4719" stroke-width="1.33333" stroke-miterlimit="8" fill="#1EB854" fill-rule="evenodd"/><path d="M728.15 361.599 869.636 591.539C875.499 601.066 874.587 615.269 867.601 623.264L817.003 681.161C810.017 689.155 799.601 687.912 793.739 678.385L710.577 543.233 710.577 365.457 717.627 364.735ZM704.075 323.84 706.619 326.609 710.577 333.041 710.577 365.457 704.075 366.123ZM628.013 120.271 694.064 120.271 694.16 120.298 681.583 123.374C677.234 124.899 672.932 126.879 668.713 129.323 634.96 148.881 613.212 194.301 613.657 244.308L658.866 243.56C658.644 218.557 669.517 195.847 686.394 186.068 690.613 183.624 694.998 182.108 699.407 181.485L710.577 182.138 710.577 303.137 704.075 304.468 704.075 323.84 701.494 321.032C695.764 317.038 688.595 317.838 683.355 323.833L632.757 381.73C625.771 389.725 624.86 403.928 630.722 413.455L710.577 543.233 710.577 663.982C710.577 676.418 703.184 686.5 694.064 686.5L628.013 686.5C618.893 686.5 611.5 676.418 611.5 663.982L611.5 142.79C611.5 130.353 618.893 120.271 628.013 120.271ZM707.963 119.615C729.943 120.912 751.32 133.126 767.626 155.093 793.714 190.241 801.652 243.395 787.72 289.656 777.054 325.075 755.186 351.082 729.063 361.327L728.15 361.599 710.577 333.041 710.577 303.137 717.366 301.747C730.074 296.415 740.673 283.583 745.897 266.235 752.863 243.104 748.894 216.527 735.85 198.953 729.328 190.166 721.183 184.5 712.559 182.254L710.577 182.138 710.577 142.79C710.577 133.463 706.418 125.46 700.491 122.041L694.16 120.298 694.739 120.157C699.147 119.533 703.567 119.356 707.963 119.615Z" stroke="#2B4719" stroke-width="1.33333" stroke-miterlimit="8" fill="#1EB854" fill-rule="evenodd"/></g></svg>